<svg
  width="563"
  height="475"
  viewBox="0 0 563 475"
  fill="none"
  xmlns="http://www.w3.org/2000/svg"
>
            <g clip-path="url(#clip0_3703_56852)">
              <path
      d="M23.7868 313.171C26.1567 314.005 28.7012 314.213 31.1751 313.778C33.6491 313.342 35.9691 312.276 37.9117 310.682C42.859 306.528 44.4104 299.686 45.6721 293.349L49.4052 274.606L41.5898 279.989C35.9691 283.861 30.2221 287.856 26.3307 293.464C22.4394 299.072 20.7417 306.727 23.8674 312.795"
      fill="#027A48"
    />
              <path
      d="M24.9935 337.169C24.0098 329.999 22.9977 322.737 23.6894 315.491C24.3023 309.056 26.265 302.771 30.2607 297.616C32.3816 294.885 34.9624 292.546 37.887 290.702C38.6494 290.221 39.3513 291.43 38.5921 291.909C33.5317 295.108 29.6175 299.833 27.414 305.401C24.9804 311.593 24.5897 318.343 25.0088 324.92C25.2622 328.898 25.8006 332.85 26.3414 336.797C26.3841 336.975 26.3574 337.163 26.2668 337.323C26.1762 337.482 26.0284 337.602 25.8533 337.656C25.6746 337.704 25.4842 337.68 25.3233 337.589C25.1625 337.497 25.0441 337.346 24.994 337.168L24.9935 337.169Z"
      fill="#B54708"
    />
              <path
      d="M32.0739 325.665C33.0901 327.211 34.4872 328.468 36.1305 329.317C37.7737 330.166 39.6078 330.577 41.456 330.511C46.2067 330.285 50.1656 326.97 53.7291 323.821L64.2715 314.509L57.2945 314.175C52.2769 313.934 47.1298 313.709 42.3507 315.259C37.5716 316.808 33.1642 320.532 32.2904 325.481"
      fill="#027A48"
    />
              <path
      d="M22.213 341.29C26.9488 332.908 32.4414 323.591 42.2568 320.613C44.9857 319.788 47.8471 319.493 50.6869 319.743C51.5821 319.82 51.3585 321.2 50.4652 321.123C45.7048 320.728 40.9536 321.985 37.0114 324.684C33.2179 327.267 30.2641 330.858 27.7643 334.666C26.2329 336.999 24.8613 339.431 23.4896 341.86C23.0513 342.636 21.7696 342.075 22.213 341.29Z"
      fill="#B54708"
    />
              <path
      d="M497.529 10.7419H105.866V196.666H497.529V10.7419Z"
      fill="#E6E6E6"
    />
              <path
      d="M486.33 26.6852H117.066V181.807H486.33V26.6852Z"
      fill="white"
    />
              <path d="M497.362 0H105.699V16.6455H497.362V0Z" fill="#7E39A4" />
              <path
      d="M118.064 10.7845C119.767 10.7845 121.148 9.40322 121.148 7.69932C121.148 5.99542 119.767 4.61414 118.064 4.61414C116.361 4.61414 114.98 5.99542 114.98 7.69932C114.98 9.40322 116.361 10.7845 118.064 10.7845Z"
      fill="white"
    />
              <path
      d="M129.77 10.7845C131.473 10.7845 132.854 9.40322 132.854 7.69932C132.854 5.99542 131.473 4.61414 129.77 4.61414C128.066 4.61414 126.686 5.99542 126.686 7.69932C126.686 9.40322 128.066 10.7845 129.77 10.7845Z"
      fill="white"
    />
              <path
      d="M141.476 10.7845C143.179 10.7845 144.56 9.40322 144.56 7.69932C144.56 5.99542 143.179 4.61414 141.476 4.61414C139.773 4.61414 138.392 5.99542 138.392 7.69932C138.392 9.40322 139.773 10.7845 141.476 10.7845Z"
      fill="white"
    />
              <path
      d="M204.279 145.513H390.909V113.512C390.881 110.138 390.179 106.803 388.845 103.704C387.511 100.605 385.572 97.8033 383.141 95.464L383.09 95.4144C379.757 92.0686 368.617 83.5769 357.091 84.2969C351.002 84.6761 345.789 87.6115 341.598 93.0217C328.55 109.868 311.411 104.182 302.356 99.2926C294.375 94.983 286.226 92.9603 278.131 93.2822C266.794 93.7257 250.838 97.9037 239.2 115.29C234.756 121.925 225.09 130.931 204.279 136.224V145.513Z"
      fill="#E4E4E4"
    />
              <path
      d="M401.469 146.257H204.638C204.475 146.257 204.318 146.192 204.203 146.076C204.087 145.961 204.022 145.804 204.022 145.64V51.2627C204.022 51.0993 204.087 50.9425 204.203 50.827C204.318 50.7114 204.475 50.6465 204.638 50.6465C204.802 50.6465 204.958 50.7114 205.074 50.827C205.189 50.9425 205.254 51.0993 205.254 51.2627V145.024H401.469C401.632 145.024 401.789 145.089 401.904 145.205C402.02 145.32 402.085 145.477 402.085 145.64C402.085 145.804 402.02 145.961 401.904 146.076C401.789 146.192 401.632 146.257 401.469 146.257Z"
      fill="#3F3D56"
    />
              <path
      d="M242.079 109.964H240.871V145.389H242.079V109.964Z"
      fill="#3F3D56"
    />
              <path
      d="M278.249 93.4185H277.041V145.389H278.249V93.4185Z"
      fill="#3F3D56"
    />
              <path
      d="M314.494 104.296H313.285V145.389H314.494V104.296Z"
      fill="#3F3D56"
    />
              <path
      d="M350.738 84.3538H349.53V145.389H350.738V84.3538Z"
      fill="#3F3D56"
    />
              <path
      d="M386.983 98.2529H385.775V145.389H386.983V98.2529Z"
      fill="#3F3D56"
    />
              <path
      d="M277.719 97.949C279.761 97.949 281.415 96.2936 281.415 94.2516C281.415 92.2096 279.761 90.5542 277.719 90.5542C275.678 90.5542 274.023 92.2096 274.023 94.2516C274.023 96.2936 275.678 97.949 277.719 97.949Z"
      fill="#7E39A4"
    />
              <path
      d="M350.209 88.2799C352.25 88.2799 353.905 86.6245 353.905 84.5825C353.905 82.5405 352.25 80.8851 350.209 80.8851C348.167 80.8851 346.513 82.5405 346.513 84.5825C346.513 86.6245 348.167 88.2799 350.209 88.2799Z"
      fill="#7E39A4"
    />
              <path
      d="M313.964 108.222C316.005 108.222 317.66 106.567 317.66 104.525C317.66 102.483 316.005 100.828 313.964 100.828C311.923 100.828 310.268 102.483 310.268 104.525C310.268 106.567 311.923 108.222 313.964 108.222Z"
      fill="#7E39A4"
    />
              <path
      d="M241.475 113.661C243.516 113.661 245.171 112.006 245.171 109.964C245.171 107.922 243.516 106.266 241.475 106.266C239.434 106.266 237.779 107.922 237.779 109.964C237.779 112.006 239.434 113.661 241.475 113.661Z"
      fill="#7E39A4"
    />
              <path
      d="M386.453 101.575C388.494 101.575 390.149 99.9194 390.149 97.8774C390.149 95.8354 388.494 94.1801 386.453 94.1801C384.412 94.1801 382.757 95.8354 382.757 97.8774C382.757 99.9194 384.412 101.575 386.453 101.575Z"
      fill="#7E39A4"
    />
              <path
      d="M82.706 335.677H90.112L93.635 307.101L82.7048 307.101L82.706 335.677Z"
      fill="#FFB6B6"
    />
              <path
      d="M80.8168 333.259L95.4016 333.258C97.8667 333.258 100.231 334.238 101.974 335.982C103.717 337.725 104.697 340.09 104.697 342.556V342.859L80.8172 342.859L80.8168 333.259Z"
      fill="#2F2E41"
    />
              <path
      d="M117.743 335.677H125.149L128.672 307.101L117.741 307.101L117.743 335.677Z"
      fill="#FFB6B6"
    />
              <path
      d="M115.853 333.259L130.438 333.258C132.903 333.258 135.268 334.238 137.011 335.982C138.754 337.725 139.733 340.09 139.733 342.556V342.859L115.854 342.859L115.853 333.259Z"
      fill="#2F2E41"
    />
              <path
      d="M131.564 205.034C132.19 204.321 132.652 203.479 132.917 202.568C133.183 201.657 133.245 200.699 133.101 199.761C132.956 198.823 132.608 197.928 132.08 197.139C131.552 196.351 130.858 195.687 130.046 195.196L117.994 137.309L104.864 142.485L120.839 197.758C120.105 199.177 119.916 200.816 120.309 202.365C120.702 203.914 121.649 205.265 122.971 206.161C124.293 207.058 125.898 207.439 127.481 207.231C129.065 207.023 130.518 206.242 131.564 205.034Z"
      fill="#FFB6B6"
    />
              <path
      d="M74.7632 193.887L69.3045 199.43C69.3045 199.43 63.4519 220.885 74.6511 247.346L82.1417 324.063L95.6186 325.078L99.6418 235.824L118.205 265.451L114.963 324.761L129.86 324.419L136.593 258.698L118.205 190.118L74.7632 193.887Z"
      fill="#393939"
    />
              <path
      d="M93.85 201.355C85.6301 201.297 77.4209 200.755 69.2649 199.73L68.9366 199.686L77.0715 163.92L74.2704 117.901L100.721 116.994C103.116 116.907 105.458 117.708 107.298 119.243C109.139 120.779 110.347 122.94 110.692 125.312L116.106 162.027L121.113 194.601L121.046 194.699C117.447 199.978 105.415 201.355 93.85 201.355Z"
      fill="#7E39A4"
    />
              <path
      d="M98.3148 124.605L103.689 117.865C103.689 117.865 113.111 111.42 116.093 125.232C119.075 139.044 124.615 161.467 124.615 161.467L106.192 162.959L98.3148 124.605Z"
      fill="#7E39A4"
    />
              <path
      d="M47.3858 205.638C46.7599 204.925 46.2978 204.083 46.0323 203.172C45.7667 202.261 45.7041 201.303 45.8487 200.365C45.9934 199.427 46.342 198.532 46.8698 197.743C47.3975 196.955 48.0918 196.291 48.9035 195.8L60.9557 137.914L74.0858 143.089L58.1102 198.362C58.8448 199.781 59.0334 201.42 58.6406 202.969C58.2477 204.518 57.3006 205.869 55.9787 206.766C54.6567 207.663 53.0519 208.043 51.4682 207.835C49.8844 207.628 48.4319 206.846 47.3858 205.638Z"
      fill="#FFB6B6"
    />
              <path
      d="M80.6348 125.21L75.2604 118.47C75.2604 118.47 65.8386 112.024 62.8568 125.836C59.875 139.648 54.3348 162.071 54.3348 162.071L72.758 163.564L80.6348 125.21Z"
      fill="#7E39A4"
    />
              <path
      d="M103.284 110.264H68.2476C67.5269 110.263 66.836 109.976 66.3264 109.467C65.8168 108.957 65.5301 108.265 65.5293 107.544V92.4366C65.5293 87.0675 67.6614 81.9182 71.4565 78.1216C75.2516 74.325 80.3988 72.1921 85.7659 72.1921C91.133 72.1921 96.2802 74.325 100.075 78.1216C103.87 81.9182 106.002 87.0675 106.002 92.4366V107.544C106.002 108.265 105.715 108.957 105.205 109.467C104.696 109.976 104.005 110.263 103.284 110.264Z"
      fill="#1D1D1D"
    />
              <path
      d="M89.6341 109.354C97.8282 109.354 104.471 102.709 104.471 94.5113C104.471 86.3139 97.8282 79.6687 89.6341 79.6687C81.44 79.6687 74.7974 86.3139 74.7974 94.5113C74.7974 102.709 81.44 109.354 89.6341 109.354Z"
      fill="#FFB6B6"
    />
              <path
      d="M110.79 93.9474H89.3659L89.1462 90.8704L88.0478 93.9474H84.7489L84.3136 87.8488L82.1365 93.9474H75.7534V93.6453C75.7582 89.3995 77.4462 85.329 80.4473 82.3268C83.4483 79.3246 87.5172 77.6358 91.7613 77.631H94.7819C99.026 77.6358 103.095 79.3245 106.096 82.3268C109.097 85.329 110.785 89.3995 110.79 93.6453V93.9474Z"
      fill="#1D1D1D"
    />
              <path
      d="M89.1906 113.084C89.0293 113.084 88.8684 113.07 88.7095 113.042L73.022 110.273V84.3354H90.291L89.8634 84.8341C83.915 91.7743 88.3964 103.028 91.5972 109.118C91.8331 109.564 91.9383 110.068 91.9007 110.571C91.863 111.074 91.684 111.557 91.3844 111.963C91.1334 112.31 90.8037 112.593 90.4224 112.787C90.041 112.982 89.6189 113.084 89.1906 113.084Z"
      fill="#1D1D1D"
    />
              <path
      d="M522.118 335.677H514.713L511.189 307.101L522.12 307.101L522.118 335.677Z"
      fill="#9E616A"
    />
              <path
      d="M524.007 342.859L500.127 342.859V342.556C500.127 340.09 501.107 337.725 502.85 335.982C504.593 334.238 506.957 333.258 509.422 333.258L524.007 333.259L524.007 342.859Z"
      fill="#2F2E41"
    />
              <path
      d="M495.538 335.677H488.133L484.609 307.101L495.54 307.101L495.538 335.677Z"
      fill="#9E616A"
    />
              <path
      d="M497.427 342.859L473.548 342.859V342.556C473.548 340.09 474.527 337.725 476.27 335.982C478.013 334.238 480.377 333.258 482.842 333.258L497.428 333.259L497.427 342.859Z"
      fill="#2F2E41"
    />
              <path
      d="M409.285 135.435C409.877 136.249 410.64 136.924 411.521 137.411C412.402 137.898 413.378 138.187 414.382 138.255C415.387 138.324 416.393 138.172 417.332 137.809C418.271 137.447 419.119 136.883 419.817 136.157L434.471 141.881L440.12 133.821L419.312 126.028C418.016 124.936 416.364 124.359 414.67 124.405C412.976 124.45 411.358 125.116 410.122 126.276C408.886 127.435 408.118 129.008 407.964 130.696C407.81 132.384 408.28 134.07 409.285 135.435Z"
      fill="#9E616A"
    />
              <path
      d="M495.445 184.27L476.151 190.567L482.597 327.26L497.487 327.629L505.108 231.23L506.838 327.248L525.25 328.263L532.037 184.27H495.445Z"
      fill="#565656"
    />
              <path
      d="M482.427 103.692L531.946 92.9283L537.453 135.584L532.867 155.965L534.704 186.938C534.704 186.938 495.549 206.434 476.151 190.567C476.151 190.567 491.742 149.6 482.705 130.423L482.427 103.692Z"
      fill="#393939"
    />
              <path
      d="M491.003 109.725L482.427 103.692C482.427 103.692 481.921 102.99 474.774 111.348C467.627 119.706 453.129 133.001 453.129 133.001L428.966 123.936L424.564 140.207L452.647 153.299L492.404 126.737L491.003 109.725Z"
      fill="#393939"
    />
              <path
      d="M534.713 202.928C535.623 202.498 536.428 201.873 537.07 201.098C537.713 200.324 538.178 199.417 538.433 198.443C538.688 197.469 538.726 196.451 538.544 195.461C538.363 194.47 537.967 193.532 537.384 192.711L545.736 179.374L538.873 172.32L527.342 191.32C526.029 192.391 525.154 193.907 524.883 195.58C524.613 197.254 524.965 198.968 525.874 200.399C526.782 201.83 528.184 202.877 529.813 203.344C531.442 203.81 533.186 203.662 534.713 202.928Z"
      fill="#9E616A"
    />
              <path
      d="M524.222 101.331L531.946 92.9284C531.946 92.9284 540.552 89.9303 547.583 105.423C554.614 120.915 562.467 152.339 562.467 152.339L544.106 187.72L529.847 181.346L544.106 152.089L529.017 130.423L524.222 101.331Z"
      fill="#393939"
    />
              <path
      d="M511.126 89.4297C518.915 85.1699 521.778 75.3995 517.52 67.6069C513.262 59.8144 503.495 56.9505 495.706 61.2103C487.916 65.4701 485.053 75.2405 489.311 83.0331C493.57 90.8256 503.336 93.6895 511.126 89.4297Z"
      fill="#9E616A"
    />
              <path
      d="M518.534 62.4646L519.313 60.8956L515.392 58.9467C515.392 58.9467 511.066 51.9058 503.239 53.8845C495.412 55.8631 491.89 57.0473 491.89 57.0473L487.979 59.016L489.942 60.9698L486.421 62.154L488.773 63.3234L486.036 64.8973L487.509 72.9661C487.509 72.9661 489.957 66.8463 494.662 69.1849C499.367 71.5236 507.974 67.976 507.974 67.976L515.451 82.4524C515.451 82.4524 516.994 77.3777 519.744 78.7308C519.744 78.7308 526.77 67.5367 518.534 62.4646Z"
      fill="black"
    />
              <path
      d="M181.223 343H0.604077C0.443866 343 0.290216 342.936 0.17693 342.823C0.0636432 342.71 0 342.556 0 342.396C0 342.235 0.0636432 342.082 0.17693 341.968C0.290216 341.855 0.443866 341.791 0.604077 341.791H181.223C181.383 341.791 181.537 341.855 181.65 341.968C181.764 342.082 181.827 342.235 181.827 342.396C181.827 342.556 181.764 342.71 181.65 342.823C181.537 342.936 181.383 343 181.223 343Z"
      fill="#CACACA"
    />
              <path
      d="M562.396 343H424.062C423.902 343 423.748 342.936 423.635 342.823C423.522 342.71 423.458 342.556 423.458 342.396C423.458 342.235 423.522 342.082 423.635 341.968C423.748 341.855 423.902 341.791 424.062 341.791H562.396C562.556 341.791 562.71 341.855 562.823 341.968C562.936 342.082 563 342.235 563 342.396C563 342.556 562.936 342.71 562.823 342.823C562.71 342.936 562.556 343 562.396 343Z"
      fill="#CACACA"
    />
            </g>
            <path
    d="M66.3512 418V400.545H77.2944V402.812H68.9847V408.131H76.7234V410.389H68.9847V415.733H77.3967V418H66.3512ZM80.6076 418V404.909H83.0536V407.04H83.2156C83.4883 406.318 83.9343 405.756 84.5536 405.352C85.1729 404.943 85.9144 404.739 86.7781 404.739C87.6531 404.739 88.386 404.943 88.9769 405.352C89.5735 405.761 90.0138 406.324 90.2979 407.04H90.4343C90.7468 406.341 91.244 405.784 91.9258 405.369C92.6076 404.949 93.4201 404.739 94.3633 404.739C95.5508 404.739 96.5195 405.111 97.2695 405.855C98.0252 406.599 98.4031 407.722 98.4031 409.222V418H95.8548V409.46C95.8548 408.574 95.6133 407.932 95.1303 407.534C94.6474 407.136 94.0707 406.938 93.4002 406.938C92.5707 406.938 91.9258 407.193 91.4656 407.705C91.0053 408.21 90.7752 408.861 90.7752 409.656V418H88.2354V409.298C88.2354 408.588 88.0138 408.017 87.5707 407.585C87.1275 407.153 86.5508 406.938 85.8406 406.938C85.3576 406.938 84.9116 407.065 84.5025 407.321C84.0991 407.571 83.7724 407.92 83.5224 408.369C83.2781 408.818 83.1559 409.338 83.1559 409.929V418H80.6076ZM102.023 418V400.545H104.571V407.031H104.725C104.873 406.759 105.086 406.443 105.364 406.085C105.642 405.727 106.029 405.415 106.523 405.148C107.017 404.875 107.671 404.739 108.483 404.739C109.54 404.739 110.483 405.006 111.313 405.54C112.142 406.074 112.793 406.844 113.265 407.849C113.742 408.855 113.98 410.065 113.98 411.48C113.98 412.895 113.745 414.108 113.273 415.119C112.801 416.125 112.154 416.901 111.33 417.446C110.506 417.986 109.566 418.256 108.509 418.256C107.713 418.256 107.063 418.122 106.557 417.855C106.057 417.588 105.665 417.276 105.381 416.918C105.097 416.56 104.878 416.241 104.725 415.963H104.512V418H102.023ZM104.52 411.455C104.52 412.375 104.654 413.182 104.921 413.875C105.188 414.568 105.574 415.111 106.08 415.503C106.586 415.889 107.205 416.082 107.938 416.082C108.699 416.082 109.336 415.881 109.847 415.477C110.358 415.068 110.745 414.514 111.006 413.815C111.273 413.116 111.407 412.33 111.407 411.455C111.407 410.591 111.276 409.815 111.015 409.128C110.759 408.44 110.373 407.898 109.855 407.5C109.344 407.102 108.705 406.903 107.938 406.903C107.199 406.903 106.574 407.094 106.063 407.474C105.557 407.855 105.174 408.386 104.912 409.068C104.651 409.75 104.52 410.545 104.52 411.455ZM120.652 418.29C119.822 418.29 119.072 418.136 118.402 417.83C117.731 417.517 117.2 417.065 116.808 416.474C116.422 415.884 116.228 415.159 116.228 414.301C116.228 413.562 116.37 412.955 116.654 412.477C116.939 412 117.322 411.622 117.805 411.344C118.288 411.065 118.828 410.855 119.424 410.713C120.021 410.571 120.629 410.463 121.248 410.389C122.032 410.298 122.669 410.224 123.157 410.168C123.646 410.105 124.001 410.006 124.223 409.869C124.444 409.733 124.555 409.511 124.555 409.205V409.145C124.555 408.401 124.345 407.824 123.924 407.415C123.51 407.006 122.89 406.801 122.066 406.801C121.208 406.801 120.532 406.991 120.038 407.372C119.549 407.747 119.211 408.165 119.024 408.625L116.629 408.08C116.913 407.284 117.328 406.642 117.873 406.153C118.424 405.659 119.058 405.301 119.774 405.08C120.49 404.852 121.243 404.739 122.032 404.739C122.555 404.739 123.109 404.801 123.694 404.926C124.285 405.045 124.836 405.267 125.348 405.591C125.865 405.915 126.288 406.378 126.618 406.98C126.947 407.577 127.112 408.352 127.112 409.307V418H124.623V416.21H124.521C124.356 416.54 124.109 416.864 123.779 417.182C123.45 417.5 123.027 417.764 122.51 417.974C121.993 418.185 121.373 418.29 120.652 418.29ZM121.206 416.244C121.91 416.244 122.512 416.105 123.012 415.827C123.518 415.548 123.902 415.185 124.163 414.736C124.43 414.281 124.564 413.795 124.564 413.278V411.591C124.473 411.682 124.297 411.767 124.035 411.847C123.779 411.92 123.487 411.986 123.157 412.043C122.828 412.094 122.507 412.142 122.194 412.188C121.882 412.227 121.62 412.261 121.41 412.29C120.916 412.352 120.464 412.457 120.055 412.605C119.652 412.753 119.328 412.966 119.083 413.244C118.845 413.517 118.725 413.881 118.725 414.335C118.725 414.966 118.958 415.443 119.424 415.767C119.89 416.085 120.484 416.244 121.206 416.244ZM130.506 418V404.909H132.969V406.989H133.105C133.344 406.284 133.765 405.73 134.367 405.327C134.975 404.918 135.662 404.713 136.429 404.713C136.588 404.713 136.776 404.719 136.992 404.73C137.213 404.741 137.387 404.756 137.512 404.773V407.21C137.409 407.182 137.228 407.151 136.966 407.116C136.705 407.077 136.444 407.057 136.182 407.057C135.58 407.057 135.043 407.185 134.571 407.44C134.105 407.69 133.736 408.04 133.463 408.489C133.191 408.932 133.054 409.437 133.054 410.006V418H130.506ZM142.061 413.56L142.044 410.449H142.487L147.703 404.909H150.754L144.805 411.216H144.404L142.061 413.56ZM139.717 418V400.545H142.265V418H139.717ZM147.984 418L143.297 411.778L145.052 409.997L151.112 418H147.984ZM164.942 418.264C163.715 418.264 162.644 417.983 161.729 417.42C160.814 416.858 160.104 416.071 159.598 415.06C159.093 414.048 158.84 412.866 158.84 411.514C158.84 410.156 159.093 408.969 159.598 407.952C160.104 406.935 160.814 406.145 161.729 405.582C162.644 405.02 163.715 404.739 164.942 404.739C166.169 404.739 167.24 405.02 168.155 405.582C169.07 406.145 169.78 406.935 170.286 407.952C170.792 408.969 171.044 410.156 171.044 411.514C171.044 412.866 170.792 414.048 170.286 415.06C169.78 416.071 169.07 416.858 168.155 417.42C167.24 417.983 166.169 418.264 164.942 418.264ZM164.951 416.125C165.746 416.125 166.405 415.915 166.928 415.494C167.451 415.074 167.837 414.514 168.087 413.815C168.343 413.116 168.471 412.347 168.471 411.506C168.471 410.67 168.343 409.903 168.087 409.205C167.837 408.5 167.451 407.935 166.928 407.509C166.405 407.082 165.746 406.869 164.951 406.869C164.15 406.869 163.485 407.082 162.956 407.509C162.434 407.935 162.044 408.5 161.789 409.205C161.539 409.903 161.414 410.67 161.414 411.506C161.414 412.347 161.539 413.116 161.789 413.815C162.044 414.514 162.434 415.074 162.956 415.494C163.485 415.915 164.15 416.125 164.951 416.125ZM176.437 410.227V418H173.889V404.909H176.335V407.04H176.497C176.798 406.347 177.27 405.79 177.912 405.369C178.559 404.949 179.375 404.739 180.358 404.739C181.25 404.739 182.031 404.926 182.701 405.301C183.372 405.67 183.892 406.222 184.261 406.955C184.63 407.687 184.815 408.594 184.815 409.673V418H182.267V409.98C182.267 409.031 182.02 408.29 181.525 407.756C181.031 407.216 180.352 406.946 179.488 406.946C178.897 406.946 178.372 407.074 177.912 407.33C177.457 407.585 177.096 407.96 176.829 408.455C176.568 408.943 176.437 409.534 176.437 410.227ZM196.195 422.909C195.814 422.909 195.468 422.878 195.155 422.815C194.843 422.759 194.61 422.696 194.456 422.628L195.07 420.54C195.536 420.665 195.951 420.719 196.314 420.702C196.678 420.685 196.999 420.548 197.277 420.293C197.561 420.037 197.811 419.619 198.027 419.04L198.343 418.17L193.553 404.909H196.28L199.596 415.068H199.732L203.047 404.909H205.783L200.388 419.747C200.138 420.429 199.82 421.006 199.434 421.477C199.047 421.955 198.587 422.313 198.053 422.551C197.519 422.79 196.9 422.909 196.195 422.909ZM213.247 418.264C212.02 418.264 210.949 417.983 210.034 417.42C209.119 416.858 208.409 416.071 207.903 415.06C207.397 414.048 207.145 412.866 207.145 411.514C207.145 410.156 207.397 408.969 207.903 407.952C208.409 406.935 209.119 406.145 210.034 405.582C210.949 405.02 212.02 404.739 213.247 404.739C214.474 404.739 215.545 405.02 216.46 405.582C217.375 406.145 218.085 406.935 218.591 407.952C219.096 408.969 219.349 410.156 219.349 411.514C219.349 412.866 219.096 414.048 218.591 415.06C218.085 416.071 217.375 416.858 216.46 417.42C215.545 417.983 214.474 418.264 213.247 418.264ZM213.255 416.125C214.051 416.125 214.71 415.915 215.233 415.494C215.755 415.074 216.142 414.514 216.392 413.815C216.647 413.116 216.775 412.347 216.775 411.506C216.775 410.67 216.647 409.903 216.392 409.205C216.142 408.5 215.755 407.935 215.233 407.509C214.71 407.082 214.051 406.869 213.255 406.869C212.454 406.869 211.789 407.082 211.261 407.509C210.738 407.935 210.349 408.5 210.093 409.205C209.843 409.903 209.718 410.67 209.718 411.506C209.718 412.347 209.843 413.116 210.093 413.815C210.349 414.514 210.738 415.074 211.261 415.494C211.789 415.915 212.454 416.125 213.255 416.125ZM230.486 412.571V404.909H233.043V418H230.537V415.733H230.401C230.1 416.432 229.617 417.014 228.952 417.48C228.293 417.94 227.472 418.17 226.489 418.17C225.648 418.17 224.904 417.986 224.256 417.616C223.614 417.241 223.108 416.688 222.739 415.955C222.375 415.222 222.194 414.315 222.194 413.236V404.909H224.742V412.929C224.742 413.821 224.989 414.531 225.483 415.06C225.978 415.588 226.62 415.852 227.409 415.852C227.887 415.852 228.361 415.733 228.833 415.494C229.31 415.256 229.705 414.895 230.017 414.412C230.336 413.929 230.492 413.315 230.486 412.571ZM236.467 418V404.909H238.93V406.989H239.066C239.305 406.284 239.725 405.73 240.328 405.327C240.936 404.918 241.623 404.713 242.39 404.713C242.549 404.713 242.737 404.719 242.953 404.73C243.174 404.741 243.348 404.756 243.473 404.773V407.21C243.37 407.182 243.189 407.151 242.927 407.116C242.666 407.077 242.404 407.057 242.143 407.057C241.541 407.057 241.004 407.185 240.532 407.44C240.066 407.69 239.697 408.04 239.424 408.489C239.152 408.932 239.015 409.437 239.015 410.006V418H236.467ZM259.018 400.545H261.643V412.92C261.643 414.04 261.422 414.997 260.978 415.793C260.541 416.588 259.924 417.196 259.129 417.616C258.333 418.031 257.402 418.239 256.333 418.239C255.35 418.239 254.467 418.06 253.683 417.702C252.904 417.344 252.288 416.824 251.833 416.142C251.385 415.455 251.16 414.619 251.16 413.636H253.777C253.777 414.119 253.887 414.537 254.109 414.889C254.336 415.241 254.646 415.517 255.038 415.716C255.436 415.909 255.89 416.006 256.402 416.006C256.958 416.006 257.43 415.889 257.816 415.656C258.208 415.418 258.507 415.068 258.711 414.608C258.916 414.148 259.018 413.585 259.018 412.92V400.545ZM270.786 418.264C269.559 418.264 268.488 417.983 267.573 417.42C266.658 416.858 265.948 416.071 265.442 415.06C264.936 414.048 264.684 412.866 264.684 411.514C264.684 410.156 264.936 408.969 265.442 407.952C265.948 406.935 266.658 406.145 267.573 405.582C268.488 405.02 269.559 404.739 270.786 404.739C272.013 404.739 273.084 405.02 273.999 405.582C274.914 406.145 275.624 406.935 276.13 407.952C276.635 408.969 276.888 410.156 276.888 411.514C276.888 412.866 276.635 414.048 276.13 415.06C275.624 416.071 274.914 416.858 273.999 417.42C273.084 417.983 272.013 418.264 270.786 418.264ZM270.794 416.125C271.59 416.125 272.249 415.915 272.772 415.494C273.294 415.074 273.681 414.514 273.931 413.815C274.186 413.116 274.314 412.347 274.314 411.506C274.314 410.67 274.186 409.903 273.931 409.205C273.681 408.5 273.294 407.935 272.772 407.509C272.249 407.082 271.59 406.869 270.794 406.869C269.993 406.869 269.328 407.082 268.8 407.509C268.277 407.935 267.888 408.5 267.632 409.205C267.382 409.903 267.257 410.67 267.257 411.506C267.257 412.347 267.382 413.116 267.632 413.815C267.888 414.514 268.277 415.074 268.8 415.494C269.328 415.915 269.993 416.125 270.794 416.125ZM288.025 412.571V404.909H290.582V418H288.076V415.733H287.94C287.639 416.432 287.156 417.014 286.491 417.48C285.832 417.94 285.011 418.17 284.028 418.17C283.187 418.17 282.443 417.986 281.795 417.616C281.153 417.241 280.647 416.688 280.278 415.955C279.914 415.222 279.733 414.315 279.733 413.236V404.909H282.281V412.929C282.281 413.821 282.528 414.531 283.022 415.06C283.517 415.588 284.159 415.852 284.949 415.852C285.426 415.852 285.9 415.733 286.372 415.494C286.849 415.256 287.244 414.895 287.556 414.412C287.875 413.929 288.031 413.315 288.025 412.571ZM294.006 418V404.909H296.469V406.989H296.605C296.844 406.284 297.265 405.73 297.867 405.327C298.475 404.918 299.162 404.713 299.929 404.713C300.088 404.713 300.276 404.719 300.492 404.73C300.713 404.741 300.887 404.756 301.012 404.773V407.21C300.909 407.182 300.728 407.151 300.466 407.116C300.205 407.077 299.944 407.057 299.682 407.057C299.08 407.057 298.543 407.185 298.071 407.44C297.605 407.69 297.236 408.04 296.963 408.489C296.691 408.932 296.554 409.437 296.554 410.006V418H294.006ZM305.765 410.227V418H303.217V404.909H305.663V407.04H305.825C306.126 406.347 306.598 405.79 307.24 405.369C307.887 404.949 308.703 404.739 309.686 404.739C310.578 404.739 311.359 404.926 312.029 405.301C312.7 405.67 313.22 406.222 313.589 406.955C313.958 407.687 314.143 408.594 314.143 409.673V418H311.595V409.98C311.595 409.031 311.348 408.29 310.853 407.756C310.359 407.216 309.68 406.946 308.816 406.946C308.225 406.946 307.7 407.074 307.24 407.33C306.785 407.585 306.424 407.96 306.157 408.455C305.896 408.943 305.765 409.534 305.765 410.227ZM323.203 418.264C321.913 418.264 320.802 417.989 319.87 417.438C318.944 416.881 318.228 416.099 317.723 415.094C317.223 414.082 316.973 412.898 316.973 411.54C316.973 410.199 317.223 409.017 317.723 407.994C318.228 406.972 318.933 406.173 319.836 405.599C320.745 405.026 321.808 404.739 323.024 404.739C323.762 404.739 324.478 404.861 325.172 405.105C325.865 405.349 326.487 405.733 327.038 406.256C327.589 406.778 328.024 407.457 328.342 408.293C328.66 409.122 328.819 410.131 328.819 411.318V412.222H318.413V410.312H326.322C326.322 409.642 326.186 409.048 325.913 408.531C325.64 408.009 325.257 407.597 324.762 407.295C324.274 406.994 323.7 406.844 323.041 406.844C322.325 406.844 321.7 407.02 321.166 407.372C320.637 407.719 320.228 408.173 319.939 408.736C319.654 409.293 319.512 409.898 319.512 410.551V412.043C319.512 412.918 319.666 413.662 319.973 414.276C320.285 414.889 320.72 415.358 321.277 415.682C321.833 416 322.484 416.159 323.228 416.159C323.711 416.159 324.152 416.091 324.549 415.955C324.947 415.812 325.291 415.602 325.581 415.324C325.87 415.045 326.092 414.702 326.245 414.293L328.657 414.727C328.464 415.437 328.118 416.06 327.618 416.594C327.123 417.122 326.501 417.534 325.751 417.83C325.007 418.119 324.157 418.264 323.203 418.264ZM332.882 422.909C332.502 422.909 332.155 422.878 331.843 422.815C331.53 422.759 331.297 422.696 331.144 422.628L331.757 420.54C332.223 420.665 332.638 420.719 333.002 420.702C333.365 420.685 333.686 420.548 333.965 420.293C334.249 420.037 334.499 419.619 334.715 419.04L335.03 418.17L330.24 404.909H332.968L336.283 415.068H336.419L339.735 404.909H342.471L337.076 419.747C336.826 420.429 336.507 421.006 336.121 421.477C335.735 421.955 335.275 422.313 334.74 422.551C334.206 422.79 333.587 422.909 332.882 422.909ZM356.731 418.264C355.504 418.264 354.433 417.983 353.518 417.42C352.603 416.858 351.893 416.071 351.387 415.06C350.882 414.048 350.629 412.866 350.629 411.514C350.629 410.156 350.882 408.969 351.387 407.952C351.893 406.935 352.603 406.145 353.518 405.582C354.433 405.02 355.504 404.739 356.731 404.739C357.958 404.739 359.029 405.02 359.944 405.582C360.859 406.145 361.569 406.935 362.075 407.952C362.581 408.969 362.833 410.156 362.833 411.514C362.833 412.866 362.581 414.048 362.075 415.06C361.569 416.071 360.859 416.858 359.944 417.42C359.029 417.983 357.958 418.264 356.731 418.264ZM356.74 416.125C357.535 416.125 358.194 415.915 358.717 415.494C359.24 415.074 359.626 414.514 359.876 413.815C360.132 413.116 360.26 412.347 360.26 411.506C360.26 410.67 360.132 409.903 359.876 409.205C359.626 408.5 359.24 407.935 358.717 407.509C358.194 407.082 357.535 406.869 356.74 406.869C355.939 406.869 355.274 407.082 354.745 407.509C354.223 407.935 353.833 408.5 353.578 409.205C353.328 409.903 353.203 410.67 353.203 411.506C353.203 412.347 353.328 413.116 353.578 413.815C353.833 414.514 354.223 415.074 354.745 415.494C355.274 415.915 355.939 416.125 356.74 416.125ZM371.908 404.909V406.955H364.51V404.909H371.908ZM366.539 418V403.392C366.539 402.574 366.718 401.895 367.076 401.355C367.434 400.81 367.908 400.403 368.499 400.136C369.09 399.864 369.732 399.727 370.425 399.727C370.936 399.727 371.374 399.77 371.738 399.855C372.101 399.935 372.371 400.009 372.547 400.077L371.951 402.139C371.831 402.105 371.678 402.065 371.49 402.02C371.303 401.969 371.076 401.943 370.809 401.943C370.189 401.943 369.746 402.097 369.479 402.403C369.218 402.71 369.087 403.153 369.087 403.733V418H366.539ZM381.093 418V400.545H387.315C388.673 400.545 389.798 400.793 390.69 401.287C391.582 401.781 392.25 402.457 392.693 403.315C393.136 404.168 393.358 405.128 393.358 406.196C393.358 407.27 393.133 408.236 392.684 409.094C392.241 409.946 391.571 410.622 390.673 411.122C389.781 411.616 388.659 411.864 387.306 411.864H383.028V409.631H387.068C387.926 409.631 388.622 409.483 389.156 409.188C389.69 408.886 390.082 408.477 390.332 407.96C390.582 407.443 390.707 406.855 390.707 406.196C390.707 405.537 390.582 404.952 390.332 404.44C390.082 403.929 389.687 403.528 389.147 403.239C388.613 402.949 387.909 402.804 387.034 402.804H383.727V418H381.093ZM396.24 418V404.909H398.703V406.989H398.84C399.078 406.284 399.499 405.73 400.101 405.327C400.709 404.918 401.397 404.713 402.164 404.713C402.323 404.713 402.51 404.719 402.726 404.73C402.948 404.741 403.121 404.756 403.246 404.773V407.21C403.144 407.182 402.962 407.151 402.701 407.116C402.439 407.077 402.178 407.057 401.917 407.057C401.314 407.057 400.777 407.185 400.306 407.44C399.84 407.69 399.471 408.04 399.198 408.489C398.925 408.932 398.789 409.437 398.789 410.006V418H396.24ZM410.497 418.264C409.27 418.264 408.199 417.983 407.284 417.42C406.369 416.858 405.659 416.071 405.153 415.06C404.647 414.048 404.395 412.866 404.395 411.514C404.395 410.156 404.647 408.969 405.153 407.952C405.659 406.935 406.369 406.145 407.284 405.582C408.199 405.02 409.27 404.739 410.497 404.739C411.724 404.739 412.795 405.02 413.71 405.582C414.625 406.145 415.335 406.935 415.841 407.952C416.346 408.969 416.599 410.156 416.599 411.514C416.599 412.866 416.346 414.048 415.841 415.06C415.335 416.071 414.625 416.858 413.71 417.42C412.795 417.983 411.724 418.264 410.497 418.264ZM410.505 416.125C411.301 416.125 411.96 415.915 412.483 415.494C413.005 415.074 413.392 414.514 413.642 413.815C413.897 413.116 414.025 412.347 414.025 411.506C414.025 410.67 413.897 409.903 413.642 409.205C413.392 408.5 413.005 407.935 412.483 407.509C411.96 407.082 411.301 406.869 410.505 406.869C409.704 406.869 409.039 407.082 408.511 407.509C407.988 407.935 407.599 408.5 407.343 409.205C407.093 409.903 406.968 410.67 406.968 411.506C406.968 412.347 407.093 413.116 407.343 413.815C407.599 414.514 407.988 415.074 408.511 415.494C409.039 415.915 409.704 416.125 410.505 416.125ZM424.932 423.182C423.892 423.182 422.998 423.045 422.248 422.773C421.503 422.5 420.895 422.139 420.424 421.69C419.952 421.241 419.6 420.75 419.367 420.216L421.557 419.312C421.711 419.562 421.915 419.827 422.171 420.105C422.432 420.389 422.784 420.631 423.228 420.83C423.676 421.028 424.253 421.128 424.958 421.128C425.924 421.128 426.722 420.892 427.353 420.42C427.983 419.955 428.299 419.21 428.299 418.188V415.614H428.137C427.983 415.892 427.762 416.202 427.472 416.543C427.188 416.884 426.796 417.179 426.296 417.429C425.796 417.679 425.145 417.804 424.344 417.804C423.31 417.804 422.378 417.562 421.549 417.08C420.725 416.591 420.071 415.872 419.588 414.923C419.111 413.969 418.873 412.795 418.873 411.403C418.873 410.011 419.108 408.818 419.58 407.824C420.057 406.83 420.711 406.068 421.54 405.54C422.37 405.006 423.31 404.739 424.361 404.739C425.174 404.739 425.83 404.875 426.33 405.148C426.83 405.415 427.219 405.727 427.498 406.085C427.782 406.443 428 406.759 428.154 407.031H428.341V404.909H430.838V418.29C430.838 419.415 430.577 420.338 430.054 421.06C429.532 421.781 428.824 422.315 427.932 422.662C427.046 423.009 426.046 423.182 424.932 423.182ZM424.907 415.69C425.64 415.69 426.259 415.52 426.765 415.179C427.276 414.832 427.662 414.338 427.924 413.696C428.191 413.048 428.324 412.273 428.324 411.369C428.324 410.489 428.194 409.713 427.932 409.043C427.671 408.372 427.287 407.849 426.782 407.474C426.276 407.094 425.651 406.903 424.907 406.903C424.14 406.903 423.5 407.102 422.989 407.5C422.478 407.892 422.091 408.426 421.83 409.102C421.574 409.778 421.446 410.534 421.446 411.369C421.446 412.227 421.577 412.98 421.838 413.628C422.1 414.276 422.486 414.781 422.998 415.145C423.515 415.509 424.151 415.69 424.907 415.69ZM434.256 418V404.909H436.719V406.989H436.855C437.094 406.284 437.515 405.73 438.117 405.327C438.725 404.918 439.412 404.713 440.179 404.713C440.338 404.713 440.526 404.719 440.742 404.73C440.963 404.741 441.137 404.756 441.262 404.773V407.21C441.159 407.182 440.978 407.151 440.716 407.116C440.455 407.077 440.194 407.057 439.932 407.057C439.33 407.057 438.793 407.185 438.321 407.44C437.855 407.69 437.486 408.04 437.213 408.489C436.941 408.932 436.804 409.437 436.804 410.006V418H434.256ZM448.64 418.264C447.35 418.264 446.24 417.989 445.308 417.438C444.382 416.881 443.666 416.099 443.16 415.094C442.66 414.082 442.41 412.898 442.41 411.54C442.41 410.199 442.66 409.017 443.16 407.994C443.666 406.972 444.37 406.173 445.274 405.599C446.183 405.026 447.245 404.739 448.461 404.739C449.2 404.739 449.916 404.861 450.609 405.105C451.302 405.349 451.924 405.733 452.475 406.256C453.027 406.778 453.461 407.457 453.779 408.293C454.098 409.122 454.257 410.131 454.257 411.318V412.222H443.85V410.312H451.76C451.76 409.642 451.623 409.048 451.35 408.531C451.078 408.009 450.694 407.597 450.2 407.295C449.711 406.994 449.137 406.844 448.478 406.844C447.762 406.844 447.137 407.02 446.603 407.372C446.075 407.719 445.666 408.173 445.376 408.736C445.092 409.293 444.95 409.898 444.95 410.551V412.043C444.95 412.918 445.103 413.662 445.41 414.276C445.723 414.889 446.157 415.358 446.714 415.682C447.271 416 447.922 416.159 448.666 416.159C449.149 416.159 449.589 416.091 449.987 415.955C450.385 415.812 450.728 415.602 451.018 415.324C451.308 415.045 451.529 414.702 451.683 414.293L454.095 414.727C453.902 415.437 453.555 416.06 453.055 416.594C452.561 417.122 451.939 417.534 451.189 417.83C450.444 418.119 449.595 418.264 448.64 418.264ZM466.894 408.105L464.584 408.514C464.488 408.219 464.334 407.937 464.124 407.67C463.919 407.403 463.641 407.185 463.289 407.014C462.936 406.844 462.496 406.759 461.968 406.759C461.246 406.759 460.644 406.92 460.161 407.244C459.678 407.562 459.436 407.974 459.436 408.48C459.436 408.918 459.598 409.27 459.922 409.537C460.246 409.804 460.769 410.023 461.49 410.193L463.57 410.67C464.775 410.949 465.672 411.378 466.263 411.957C466.854 412.537 467.15 413.29 467.15 414.216C467.15 415 466.922 415.699 466.468 416.312C466.019 416.92 465.391 417.398 464.584 417.744C463.783 418.091 462.854 418.264 461.797 418.264C460.331 418.264 459.135 417.952 458.209 417.327C457.283 416.696 456.715 415.801 456.505 414.642L458.968 414.267C459.121 414.909 459.436 415.395 459.914 415.724C460.391 416.048 461.013 416.21 461.78 416.21C462.615 416.21 463.283 416.037 463.783 415.69C464.283 415.338 464.533 414.909 464.533 414.403C464.533 413.994 464.38 413.651 464.073 413.372C463.772 413.094 463.309 412.884 462.684 412.741L460.468 412.256C459.246 411.977 458.343 411.534 457.757 410.926C457.178 410.318 456.888 409.548 456.888 408.616C456.888 407.844 457.104 407.168 457.536 406.588C457.968 406.009 458.564 405.557 459.326 405.233C460.087 404.903 460.959 404.739 461.942 404.739C463.357 404.739 464.471 405.045 465.283 405.659C466.096 406.267 466.632 407.082 466.894 408.105ZM479.761 408.105L477.451 408.514C477.355 408.219 477.201 407.937 476.991 407.67C476.787 407.403 476.508 407.185 476.156 407.014C475.804 406.844 475.363 406.759 474.835 406.759C474.113 406.759 473.511 406.92 473.028 407.244C472.545 407.562 472.304 407.974 472.304 408.48C472.304 408.918 472.466 409.27 472.789 409.537C473.113 409.804 473.636 410.023 474.358 410.193L476.437 410.67C477.642 410.949 478.539 411.378 479.13 411.957C479.721 412.537 480.017 413.29 480.017 414.216C480.017 415 479.789 415.699 479.335 416.312C478.886 416.92 478.258 417.398 477.451 417.744C476.65 418.091 475.721 418.264 474.664 418.264C473.199 418.264 472.002 417.952 471.076 417.327C470.15 416.696 469.582 415.801 469.372 414.642L471.835 414.267C471.988 414.909 472.304 415.395 472.781 415.724C473.258 416.048 473.88 416.21 474.647 416.21C475.483 416.21 476.15 416.037 476.65 415.69C477.15 415.338 477.4 414.909 477.4 414.403C477.4 413.994 477.247 413.651 476.94 413.372C476.639 413.094 476.176 412.884 475.551 412.741L473.335 412.256C472.113 411.977 471.21 411.534 470.625 410.926C470.045 410.318 469.755 409.548 469.755 408.616C469.755 407.844 469.971 407.168 470.403 406.588C470.835 406.009 471.431 405.557 472.193 405.233C472.954 404.903 473.826 404.739 474.809 404.739C476.224 404.739 477.338 405.045 478.15 405.659C478.963 406.267 479.5 407.082 479.761 408.105ZM496.883 409.52V411.727H489.145V409.52H496.883Z"
    fill="#EAECF0"
  />
            <path
    d="M41.2183 439.727H45.9797L51.6728 450.023H51.9001L57.5933 439.727H62.3547L53.8887 454.318V463H49.6842V454.318L41.2183 439.727ZM69.6023 463.341C67.8977 463.341 66.4205 462.966 65.1705 462.216C63.9205 461.466 62.9508 460.417 62.2614 459.068C61.5795 457.72 61.2386 456.144 61.2386 454.341C61.2386 452.538 61.5795 450.958 62.2614 449.602C62.9508 448.246 63.9205 447.193 65.1705 446.443C66.4205 445.693 67.8977 445.318 69.6023 445.318C71.3068 445.318 72.7841 445.693 74.0341 446.443C75.2841 447.193 76.25 448.246 76.9318 449.602C77.6212 450.958 77.9659 452.538 77.9659 454.341C77.9659 456.144 77.6212 457.72 76.9318 459.068C76.25 460.417 75.2841 461.466 74.0341 462.216C72.7841 462.966 71.3068 463.341 69.6023 463.341ZM69.625 460.045C70.5492 460.045 71.322 459.792 71.9432 459.284C72.5644 458.769 73.0265 458.08 73.3295 457.216C73.6402 456.352 73.7955 455.39 73.7955 454.33C73.7955 453.261 73.6402 452.295 73.3295 451.432C73.0265 450.561 72.5644 449.867 71.9432 449.352C71.322 448.837 70.5492 448.58 69.625 448.58C68.678 448.58 67.8902 448.837 67.2614 449.352C66.6401 449.867 66.1742 450.561 65.8636 451.432C65.5606 452.295 65.4091 453.261 65.4091 454.33C65.4091 455.39 65.5606 456.352 65.8636 457.216C66.1742 458.08 66.6401 458.769 67.2614 459.284C67.8902 459.792 68.678 460.045 69.625 460.045ZM92.6624 455.659V445.545H96.776V463H92.7874V459.898H92.6056C92.2116 460.875 91.5639 461.674 90.6624 462.295C89.7684 462.917 88.6662 463.227 87.3556 463.227C86.2116 463.227 85.2003 462.973 84.3215 462.466C83.4503 461.951 82.7684 461.205 82.276 460.227C81.7836 459.242 81.5374 458.053 81.5374 456.659V445.545H85.651V456.023C85.651 457.129 85.9541 458.008 86.5601 458.659C87.1662 459.311 87.9616 459.636 88.9465 459.636C89.5525 459.636 90.1397 459.489 90.7078 459.193C91.276 458.898 91.7419 458.458 92.1056 457.875C92.4768 457.284 92.6624 456.545 92.6624 455.659ZM101.086 463V445.545H105.075V448.455H105.257C105.575 447.447 106.12 446.67 106.893 446.125C107.673 445.572 108.563 445.295 109.563 445.295C109.791 445.295 110.044 445.307 110.325 445.33C110.613 445.345 110.851 445.371 111.041 445.409V449.193C110.866 449.133 110.59 449.08 110.211 449.034C109.84 448.981 109.48 448.955 109.132 448.955C108.382 448.955 107.707 449.117 107.109 449.443C106.518 449.761 106.052 450.205 105.711 450.773C105.37 451.341 105.2 451.996 105.2 452.739V463H101.086ZM125.042 463H120.542L128.735 439.727H133.939L142.144 463H137.644L131.428 444.5H131.246L125.042 463ZM125.189 453.875H137.462V457.261H125.189V453.875ZM158.622 450.159L154.872 450.568C154.766 450.189 154.58 449.833 154.315 449.5C154.057 449.167 153.709 448.898 153.269 448.693C152.83 448.489 152.292 448.386 151.656 448.386C150.8 448.386 150.08 448.572 149.497 448.943C148.921 449.314 148.637 449.795 148.644 450.386C148.637 450.894 148.822 451.307 149.201 451.625C149.588 451.943 150.224 452.205 151.11 452.409L154.088 453.045C155.739 453.402 156.966 453.966 157.769 454.739C158.58 455.511 158.989 456.523 158.997 457.773C158.989 458.871 158.667 459.841 158.031 460.682C157.402 461.515 156.527 462.167 155.406 462.636C154.284 463.106 152.997 463.341 151.542 463.341C149.406 463.341 147.686 462.894 146.383 462C145.08 461.098 144.303 459.845 144.053 458.239L148.065 457.852C148.247 458.64 148.633 459.235 149.224 459.636C149.815 460.038 150.584 460.239 151.531 460.239C152.508 460.239 153.292 460.038 153.883 459.636C154.481 459.235 154.781 458.739 154.781 458.148C154.781 457.648 154.588 457.235 154.201 456.909C153.822 456.583 153.231 456.333 152.428 456.159L149.451 455.534C147.777 455.186 146.538 454.598 145.735 453.773C144.932 452.939 144.534 451.886 144.542 450.614C144.534 449.538 144.826 448.606 145.417 447.818C146.016 447.023 146.845 446.409 147.906 445.977C148.974 445.538 150.205 445.318 151.599 445.318C153.644 445.318 155.254 445.754 156.428 446.625C157.61 447.496 158.341 448.674 158.622 450.159ZM176.264 450.159L172.514 450.568C172.408 450.189 172.222 449.833 171.957 449.5C171.7 449.167 171.351 448.898 170.912 448.693C170.472 448.489 169.935 448.386 169.298 448.386C168.442 448.386 167.722 448.572 167.139 448.943C166.563 449.314 166.279 449.795 166.287 450.386C166.279 450.894 166.465 451.307 166.844 451.625C167.23 451.943 167.866 452.205 168.753 452.409L171.73 453.045C173.382 453.402 174.609 453.966 175.412 454.739C176.222 455.511 176.632 456.523 176.639 457.773C176.632 458.871 176.31 459.841 175.673 460.682C175.044 461.515 174.169 462.167 173.048 462.636C171.927 463.106 170.639 463.341 169.185 463.341C167.048 463.341 165.328 462.894 164.025 462C162.722 461.098 161.946 459.845 161.696 458.239L165.707 457.852C165.889 458.64 166.275 459.235 166.866 459.636C167.457 460.038 168.226 460.239 169.173 460.239C170.15 460.239 170.935 460.038 171.525 459.636C172.124 459.235 172.423 458.739 172.423 458.148C172.423 457.648 172.23 457.235 171.844 456.909C171.465 456.583 170.874 456.333 170.071 456.159L167.094 455.534C165.419 455.186 164.181 454.598 163.378 453.773C162.575 452.939 162.177 451.886 162.185 450.614C162.177 449.538 162.469 448.606 163.06 447.818C163.658 447.023 164.488 446.409 165.548 445.977C166.616 445.538 167.847 445.318 169.241 445.318C171.287 445.318 172.897 445.754 174.071 446.625C175.253 447.496 175.984 448.674 176.264 450.159ZM187.838 463.341C186.088 463.341 184.577 462.977 183.304 462.25C182.039 461.515 181.066 460.477 180.384 459.136C179.702 457.788 179.361 456.201 179.361 454.375C179.361 452.58 179.702 451.004 180.384 449.648C181.073 448.284 182.035 447.223 183.27 446.466C184.505 445.701 185.956 445.318 187.622 445.318C188.698 445.318 189.713 445.492 190.668 445.841C191.63 446.182 192.479 446.712 193.213 447.432C193.956 448.152 194.539 449.068 194.963 450.182C195.388 451.288 195.6 452.606 195.6 454.136V455.398H181.293V452.625H191.657C191.649 451.837 191.479 451.136 191.145 450.523C190.812 449.902 190.346 449.413 189.747 449.057C189.157 448.701 188.467 448.523 187.679 448.523C186.838 448.523 186.1 448.727 185.463 449.136C184.827 449.538 184.331 450.068 183.975 450.727C183.626 451.379 183.448 452.095 183.441 452.875V455.295C183.441 456.311 183.626 457.182 183.997 457.909C184.369 458.629 184.888 459.182 185.554 459.568C186.221 459.947 187.001 460.136 187.895 460.136C188.494 460.136 189.035 460.053 189.52 459.886C190.005 459.712 190.426 459.458 190.782 459.125C191.138 458.792 191.407 458.379 191.588 457.886L195.429 458.318C195.187 459.333 194.725 460.22 194.043 460.977C193.369 461.727 192.505 462.311 191.452 462.727C190.399 463.136 189.194 463.341 187.838 463.341ZM212.955 450.159L209.205 450.568C209.099 450.189 208.914 449.833 208.649 449.5C208.391 449.167 208.042 448.898 207.603 448.693C207.164 448.489 206.626 448.386 205.989 448.386C205.133 448.386 204.414 448.572 203.83 448.943C203.255 449.314 202.97 449.795 202.978 450.386C202.97 450.894 203.156 451.307 203.535 451.625C203.921 451.943 204.558 452.205 205.444 452.409L208.421 453.045C210.073 453.402 211.3 453.966 212.103 454.739C212.914 455.511 213.323 456.523 213.33 457.773C213.323 458.871 213.001 459.841 212.364 460.682C211.736 461.515 210.861 462.167 209.739 462.636C208.618 463.106 207.33 463.341 205.876 463.341C203.739 463.341 202.02 462.894 200.717 462C199.414 461.098 198.637 459.845 198.387 458.239L202.399 457.852C202.58 458.64 202.967 459.235 203.558 459.636C204.149 460.038 204.917 460.239 205.864 460.239C206.842 460.239 207.626 460.038 208.217 459.636C208.815 459.235 209.114 458.739 209.114 458.148C209.114 457.648 208.921 457.235 208.535 456.909C208.156 456.583 207.565 456.333 206.762 456.159L203.785 455.534C202.111 455.186 200.872 454.598 200.069 453.773C199.266 452.939 198.868 451.886 198.876 450.614C198.868 449.538 199.16 448.606 199.751 447.818C200.349 447.023 201.179 446.409 202.239 445.977C203.308 445.538 204.539 445.318 205.933 445.318C207.978 445.318 209.588 445.754 210.762 446.625C211.944 447.496 212.675 448.674 212.955 450.159ZM230.598 450.159L226.848 450.568C226.742 450.189 226.556 449.833 226.291 449.5C226.033 449.167 225.685 448.898 225.246 448.693C224.806 448.489 224.268 448.386 223.632 448.386C222.776 448.386 222.056 448.572 221.473 448.943C220.897 449.314 220.613 449.795 220.621 450.386C220.613 450.894 220.799 451.307 221.177 451.625C221.564 451.943 222.2 452.205 223.086 452.409L226.064 453.045C227.715 453.402 228.943 453.966 229.746 454.739C230.556 455.511 230.965 456.523 230.973 457.773C230.965 458.871 230.643 459.841 230.007 460.682C229.378 461.515 228.503 462.167 227.382 462.636C226.261 463.106 224.973 463.341 223.518 463.341C221.382 463.341 219.662 462.894 218.359 462C217.056 461.098 216.28 459.845 216.03 458.239L220.041 457.852C220.223 458.64 220.609 459.235 221.2 459.636C221.791 460.038 222.56 460.239 223.507 460.239C224.484 460.239 225.268 460.038 225.859 459.636C226.458 459.235 226.757 458.739 226.757 458.148C226.757 457.648 226.564 457.235 226.177 456.909C225.799 456.583 225.208 456.333 224.405 456.159L221.427 455.534C219.753 455.186 218.515 454.598 217.711 453.773C216.908 452.939 216.511 451.886 216.518 450.614C216.511 449.538 216.802 448.606 217.393 447.818C217.992 447.023 218.821 446.409 219.882 445.977C220.95 445.538 222.181 445.318 223.575 445.318C225.621 445.318 227.23 445.754 228.405 446.625C229.586 447.496 230.318 448.674 230.598 450.159ZM234.445 463V445.545H238.377V448.511H238.581C238.945 447.511 239.547 446.731 240.388 446.17C241.229 445.602 242.233 445.318 243.399 445.318C244.581 445.318 245.577 445.606 246.388 446.182C247.206 446.75 247.782 447.527 248.115 448.511H248.297C248.684 447.542 249.335 446.769 250.252 446.193C251.176 445.61 252.271 445.318 253.536 445.318C255.142 445.318 256.452 445.826 257.468 446.841C258.483 447.856 258.99 449.337 258.99 451.284V463H254.865V451.92C254.865 450.837 254.577 450.045 254.002 449.545C253.426 449.038 252.721 448.784 251.888 448.784C250.896 448.784 250.119 449.095 249.559 449.716C249.005 450.33 248.729 451.129 248.729 452.114V463H244.695V451.75C244.695 450.848 244.422 450.129 243.877 449.591C243.339 449.053 242.634 448.784 241.763 448.784C241.172 448.784 240.634 448.936 240.149 449.239C239.665 449.534 239.278 449.955 238.99 450.5C238.702 451.038 238.559 451.667 238.559 452.386V463H234.445ZM270.971 463.341C269.221 463.341 267.71 462.977 266.437 462.25C265.172 461.515 264.198 460.477 263.516 459.136C262.835 457.788 262.494 456.201 262.494 454.375C262.494 452.58 262.835 451.004 263.516 449.648C264.206 448.284 265.168 447.223 266.403 446.466C267.638 445.701 269.088 445.318 270.755 445.318C271.831 445.318 272.846 445.492 273.8 445.841C274.763 446.182 275.611 446.712 276.346 447.432C277.088 448.152 277.672 449.068 278.096 450.182C278.52 451.288 278.732 452.606 278.732 454.136V455.398H264.425V452.625H274.789C274.782 451.837 274.611 451.136 274.278 450.523C273.944 449.902 273.478 449.413 272.88 449.057C272.289 448.701 271.6 448.523 270.812 448.523C269.971 448.523 269.232 448.727 268.596 449.136C267.96 449.538 267.463 450.068 267.107 450.727C266.759 451.379 266.581 452.095 266.573 452.875V455.295C266.573 456.311 266.759 457.182 267.13 457.909C267.501 458.629 268.02 459.182 268.687 459.568C269.353 459.947 270.134 460.136 271.028 460.136C271.626 460.136 272.168 460.053 272.653 459.886C273.138 459.712 273.558 459.458 273.914 459.125C274.27 458.792 274.539 458.379 274.721 457.886L278.562 458.318C278.319 459.333 277.857 460.22 277.175 460.977C276.501 461.727 275.638 462.311 274.585 462.727C273.532 463.136 272.327 463.341 270.971 463.341ZM286.406 452.773V463H282.292V445.545H286.224V448.511H286.429C286.83 447.534 287.47 446.758 288.349 446.182C289.236 445.606 290.33 445.318 291.633 445.318C292.838 445.318 293.887 445.576 294.781 446.091C295.683 446.606 296.379 447.352 296.872 448.33C297.372 449.307 297.618 450.492 297.611 451.886V463H293.497V452.523C293.497 451.356 293.194 450.443 292.588 449.784C291.989 449.125 291.16 448.795 290.099 448.795C289.379 448.795 288.739 448.955 288.179 449.273C287.626 449.583 287.19 450.034 286.872 450.625C286.561 451.216 286.406 451.932 286.406 452.773ZM310.588 445.545V448.727H300.554V445.545H310.588ZM303.031 441.364H307.145V457.75C307.145 458.303 307.228 458.727 307.395 459.023C307.569 459.311 307.797 459.508 308.077 459.614C308.357 459.72 308.668 459.773 309.009 459.773C309.266 459.773 309.501 459.754 309.713 459.716C309.933 459.678 310.1 459.644 310.213 459.614L310.906 462.83C310.687 462.905 310.372 462.989 309.963 463.08C309.562 463.17 309.069 463.223 308.486 463.239C307.456 463.269 306.528 463.114 305.702 462.773C304.876 462.424 304.221 461.886 303.736 461.159C303.259 460.432 303.024 459.523 303.031 458.432V441.364ZM318.938 459.818L318.79 461.068C318.684 462.023 318.495 462.992 318.222 463.977C317.957 464.97 317.677 465.883 317.381 466.716C317.086 467.549 316.847 468.205 316.665 468.682H313.893C313.999 468.22 314.143 467.591 314.325 466.795C314.514 466 314.696 465.106 314.87 464.114C315.044 463.121 315.162 462.114 315.222 461.091L315.302 459.818H318.938ZM329.516 439.727H334.277L339.97 450.023H340.198L345.891 439.727H350.652L342.186 454.318V463H337.982V454.318L329.516 439.727ZM357.9 463.341C356.195 463.341 354.718 462.966 353.468 462.216C352.218 461.466 351.248 460.417 350.559 459.068C349.877 457.72 349.536 456.144 349.536 454.341C349.536 452.538 349.877 450.958 350.559 449.602C351.248 448.246 352.218 447.193 353.468 446.443C354.718 445.693 356.195 445.318 357.9 445.318C359.604 445.318 361.082 445.693 362.332 446.443C363.582 447.193 364.547 448.246 365.229 449.602C365.919 450.958 366.263 452.538 366.263 454.341C366.263 456.144 365.919 457.72 365.229 459.068C364.547 460.417 363.582 461.466 362.332 462.216C361.082 462.966 359.604 463.341 357.9 463.341ZM357.922 460.045C358.847 460.045 359.619 459.792 360.241 459.284C360.862 458.769 361.324 458.08 361.627 457.216C361.938 456.352 362.093 455.39 362.093 454.33C362.093 453.261 361.938 452.295 361.627 451.432C361.324 450.561 360.862 449.867 360.241 449.352C359.619 448.837 358.847 448.58 357.922 448.58C356.976 448.58 356.188 448.837 355.559 449.352C354.938 449.867 354.472 450.561 354.161 451.432C353.858 452.295 353.707 453.261 353.707 454.33C353.707 455.39 353.858 456.352 354.161 457.216C354.472 458.08 354.938 458.769 355.559 459.284C356.188 459.792 356.976 460.045 357.922 460.045ZM380.96 455.659V445.545H385.074V463H381.085V459.898H380.903C380.509 460.875 379.861 461.674 378.96 462.295C378.066 462.917 376.964 463.227 375.653 463.227C374.509 463.227 373.498 462.973 372.619 462.466C371.748 461.951 371.066 461.205 370.574 460.227C370.081 459.242 369.835 458.053 369.835 456.659V445.545H373.949V456.023C373.949 457.129 374.252 458.008 374.858 458.659C375.464 459.311 376.259 459.636 377.244 459.636C377.85 459.636 378.437 459.489 379.005 459.193C379.574 458.898 380.039 458.458 380.403 457.875C380.774 457.284 380.96 456.545 380.96 455.659ZM389.384 463V445.545H393.372V448.455H393.554C393.872 447.447 394.418 446.67 395.19 446.125C395.971 445.572 396.861 445.295 397.861 445.295C398.088 445.295 398.342 445.307 398.622 445.33C398.91 445.345 399.149 445.371 399.338 445.409V449.193C399.164 449.133 398.887 449.08 398.509 449.034C398.137 448.981 397.778 448.955 397.429 448.955C396.679 448.955 396.005 449.117 395.406 449.443C394.815 449.761 394.35 450.205 394.009 450.773C393.668 451.341 393.497 451.996 393.497 452.739V463H389.384ZM425.941 447.159C425.752 446.545 425.491 445.996 425.157 445.511C424.832 445.019 424.438 444.598 423.975 444.25C423.521 443.902 422.998 443.64 422.407 443.466C421.816 443.284 421.172 443.193 420.475 443.193C419.225 443.193 418.112 443.508 417.135 444.136C416.157 444.765 415.388 445.689 414.828 446.909C414.275 448.121 413.998 449.598 413.998 451.341C413.998 453.098 414.275 454.587 414.828 455.807C415.381 457.027 416.15 457.955 417.135 458.591C418.119 459.22 419.263 459.534 420.566 459.534C421.748 459.534 422.771 459.307 423.635 458.852C424.506 458.398 425.176 457.754 425.646 456.92C426.116 456.08 426.35 455.095 426.35 453.966L427.305 454.114H420.987V450.818H430.43V453.614C430.43 455.606 430.006 457.33 429.157 458.784C428.309 460.239 427.142 461.36 425.657 462.148C424.172 462.928 422.468 463.318 420.544 463.318C418.4 463.318 416.517 462.837 414.896 461.875C413.282 460.905 412.021 459.53 411.112 457.75C410.21 455.962 409.76 453.841 409.76 451.386C409.76 449.508 410.025 447.83 410.555 446.352C411.093 444.875 411.843 443.621 412.805 442.591C413.767 441.553 414.896 440.765 416.191 440.227C417.487 439.682 418.896 439.409 420.419 439.409C421.707 439.409 422.907 439.598 424.021 439.977C425.135 440.348 426.123 440.879 426.987 441.568C427.858 442.258 428.574 443.076 429.135 444.023C429.695 444.97 430.063 446.015 430.237 447.159H425.941ZM434.405 463V445.545H438.394V448.455H438.575C438.894 447.447 439.439 446.67 440.212 446.125C440.992 445.572 441.882 445.295 442.882 445.295C443.109 445.295 443.363 445.307 443.644 445.33C443.931 445.345 444.17 445.371 444.359 445.409V449.193C444.185 449.133 443.909 449.08 443.53 449.034C443.159 448.981 442.799 448.955 442.45 448.955C441.7 448.955 441.026 449.117 440.428 449.443C439.837 449.761 439.371 450.205 439.03 450.773C438.689 451.341 438.519 451.996 438.519 452.739V463H434.405ZM454.067 463.341C452.363 463.341 450.885 462.966 449.635 462.216C448.385 461.466 447.416 460.417 446.726 459.068C446.045 457.72 445.704 456.144 445.704 454.341C445.704 452.538 446.045 450.958 446.726 449.602C447.416 448.246 448.385 447.193 449.635 446.443C450.885 445.693 452.363 445.318 454.067 445.318C455.772 445.318 457.249 445.693 458.499 446.443C459.749 447.193 460.715 448.246 461.397 449.602C462.086 450.958 462.431 452.538 462.431 454.341C462.431 456.144 462.086 457.72 461.397 459.068C460.715 460.417 459.749 461.466 458.499 462.216C457.249 462.966 455.772 463.341 454.067 463.341ZM454.09 460.045C455.014 460.045 455.787 459.792 456.408 459.284C457.029 458.769 457.492 458.08 457.795 457.216C458.105 456.352 458.26 455.39 458.26 454.33C458.26 453.261 458.105 452.295 457.795 451.432C457.492 450.561 457.029 449.867 456.408 449.352C455.787 448.837 455.014 448.58 454.09 448.58C453.143 448.58 452.355 448.837 451.726 449.352C451.105 449.867 450.639 450.561 450.329 451.432C450.026 452.295 449.874 453.261 449.874 454.33C449.874 455.39 450.026 456.352 450.329 457.216C450.639 458.08 451.105 458.769 451.726 459.284C452.355 459.792 453.143 460.045 454.09 460.045ZM469.105 463L464.173 445.545H468.366L471.434 457.818H471.593L474.73 445.545H478.877L482.014 457.75H482.184L485.207 445.545H489.411L484.468 463H480.184L476.911 451.205H476.673L473.4 463H469.105ZM501.08 445.545V448.727H491.045V445.545H501.08ZM493.523 441.364H497.636V457.75C497.636 458.303 497.72 458.727 497.886 459.023C498.061 459.311 498.288 459.508 498.568 459.614C498.848 459.72 499.159 459.773 499.5 459.773C499.758 459.773 499.992 459.754 500.205 459.716C500.424 459.678 500.591 459.644 500.705 459.614L501.398 462.83C501.178 462.905 500.864 462.989 500.455 463.08C500.053 463.17 499.561 463.223 498.977 463.239C497.947 463.269 497.019 463.114 496.193 462.773C495.367 462.424 494.712 461.886 494.227 461.159C493.75 460.432 493.515 459.523 493.523 458.432V441.364ZM509.089 452.773V463H504.975V439.727H508.998V448.511H509.202C509.611 447.527 510.244 446.75 511.1 446.182C511.964 445.606 513.062 445.318 514.395 445.318C515.607 445.318 516.664 445.572 517.566 446.08C518.467 446.587 519.164 447.33 519.657 448.307C520.157 449.284 520.407 450.477 520.407 451.886V463H516.293V452.523C516.293 451.348 515.99 450.436 515.384 449.784C514.786 449.125 513.945 448.795 512.861 448.795C512.134 448.795 511.482 448.955 510.907 449.273C510.339 449.583 509.892 450.034 509.566 450.625C509.248 451.216 509.089 451.932 509.089 452.773Z"
    fill="#EAECF0"
  />
            <defs>
              <clipPath id="clip0_3703_56852">
                <rect width="563" height="343" fill="white" />
              </clipPath>
            </defs>
          </svg>
